<?xml version="1.0" encoding="UTF-8" standalone="no"?>
<!-- Created with Inkscape (http://www.inkscape.org/) -->

<svg
   xmlns:dc="http://purl.org/dc/elements/1.1/"
   xmlns:cc="http://creativecommons.org/ns#"
   xmlns:rdf="http://www.w3.org/1999/02/22-rdf-syntax-ns#"
   xmlns:svg="http://www.w3.org/2000/svg"
   xmlns="http://www.w3.org/2000/svg"
   xmlns:sodipodi="http://sodipodi.sourceforge.net/DTD/sodipodi-0.dtd"
   xmlns:inkscape="http://www.inkscape.org/namespaces/inkscape"
   width="340"
   height="240"
   viewBox="0 0 89.958331 63.500004"
   version="1.1"
   id="svg8"
   inkscape:version="0.92.4 (5da689c313, 2019-01-14)"
   sodipodi:docname="drawing.svg">
  <defs
     id="defs2" />
  <sodipodi:namedview
     id="base"
     pagecolor="#ffffff"
     bordercolor="#666666"
     borderopacity="1.0"
     inkscape:pageopacity="0.0"
     inkscape:pageshadow="2"
     inkscape:zoom="2"
     inkscape:cx="132.97979"
     inkscape:cy="146.72084"
     inkscape:document-units="mm"
     inkscape:current-layer="layer1"
     showgrid="false"
     units="px"
     inkscape:snap-bbox="true"
     inkscape:bbox-paths="false"
     inkscape:snap-bbox-edge-midpoints="true"
     inkscape:snap-global="false"
     inkscape:bbox-nodes="false"
     inkscape:snap-text-baseline="true"
     showguides="false"
     inkscape:window-width="1920"
     inkscape:window-height="1001"
     inkscape:window-x="-9"
     inkscape:window-y="-9"
     inkscape:window-maximized="1">
    <inkscape:grid
       type="xygrid"
       id="grid4570" />
  </sodipodi:namedview>
  <metadata
     id="metadata5">
    <rdf:RDF>
      <cc:Work
         rdf:about="">
        <dc:format>image/svg+xml</dc:format>
        <dc:type
           rdf:resource="http://purl.org/dc/dcmitype/StillImage" />
        <dc:title></dc:title>
      </cc:Work>
    </rdf:RDF>
  </metadata>
  <g
     inkscape:label="Layer 1"
     inkscape:groupmode="layer"
     id="layer1"
     transform="translate(0,-233.49998)">
    <g
       id="g4788"
       transform="matrix(0.97938041,0,0,0.97938041,-3.7676298,28.920335)">
      <path
         d="m 26.886705,246.9694 c -0.28321,0.49053 -9.244246,5.66419 -9.810665,5.66419 -0.566419,0 -9.5274548,-5.17366 -9.8106643,-5.66419 -0.2832095,-0.49054 -0.2832094,-10.83785 0,-11.32838 0.2832095,-0.49054 9.2442453,-5.66419 9.8106643,-5.66419 0.566419,0 9.527455,5.17365 9.810665,5.66419 0.283209,0.49053 0.283209,10.83784 0,11.32838 z"
         inkscape:randomized="0"
         inkscape:rounded="0.05"
         inkscape:flatsided="true"
         sodipodi:arg2="1.0471976"
         sodipodi:arg1="0.52359878"
         sodipodi:r2="9.8106642"
         sodipodi:r1="11.32838"
         sodipodi:cy="241.30521"
         sodipodi:cx="17.07604"
         sodipodi:sides="6"
         id="path4582"
         style="opacity:1;fill:#ffaa00;fill-opacity:1;fill-rule:evenodd;stroke:#000000;stroke-width:0.52904135;stroke-linecap:round;stroke-linejoin:round;stroke-miterlimit:4;stroke-dasharray:none;stroke-dashoffset:2.64983559;stroke-opacity:1;paint-order:normal"
         sodipodi:type="star" />
      <path
         sodipodi:type="star"
         style="opacity:1;fill:#ffd42a;fill-opacity:1;fill-rule:evenodd;stroke:#000000;stroke-width:0.52904135;stroke-linecap:round;stroke-linejoin:round;stroke-miterlimit:4;stroke-dasharray:none;stroke-dashoffset:2.64983559;stroke-opacity:1;paint-order:normal"
         id="path4584"
         sodipodi:sides="6"
         sodipodi:cx="17.07604"
         sodipodi:cy="241.30521"
         sodipodi:r1="8.7401972"
         sodipodi:r2="7.569231"
         sodipodi:arg1="0.52359878"
         sodipodi:arg2="1.0471976"
         inkscape:flatsided="true"
         inkscape:rounded="0.1"
         inkscape:randomized="0"
         d="m 24.645273,245.6753 c -0.43701,0.75693 -6.695213,4.3701 -7.569233,4.3701 -0.874019,0 -7.1322227,-3.61317 -7.5692325,-4.3701 -0.4370099,-0.75692 -0.4370099,-7.98327 0,-8.74019 0.4370099,-0.75693 6.6952135,-4.3701 7.5692325,-4.3701 0.87402,0 7.132223,3.61317 7.569233,4.3701 0.43701,0.75692 0.43701,7.98327 0,8.74019 z" />
      <path
         sodipodi:type="star"
         style="opacity:1;fill:#ffaa00;fill-opacity:1;fill-rule:evenodd;stroke:#000000;stroke-width:0.52904135;stroke-linecap:round;stroke-linejoin:round;stroke-miterlimit:4;stroke-dasharray:none;stroke-dashoffset:2.64983559;stroke-opacity:1;paint-order:normal"
         id="path4590"
         sodipodi:sides="6"
         sodipodi:cx="38.076038"
         sodipodi:cy="241.30521"
         sodipodi:r1="11.32838"
         sodipodi:r2="9.8106642"
         sodipodi:arg1="0.52359878"
         sodipodi:arg2="1.0471976"
         inkscape:flatsided="true"
         inkscape:rounded="0.05"
         inkscape:randomized="0"
         d="m 47.886703,246.9694 c -0.28321,0.49053 -9.244246,5.66419 -9.810665,5.66419 -0.566419,0 -9.527455,-5.17366 -9.810664,-5.66419 -0.28321,-0.49054 -0.28321,-10.83785 0,-11.32838 0.283209,-0.49054 9.244245,-5.66419 9.810664,-5.66419 0.566419,0 9.527455,5.17365 9.810665,5.66419 0.283209,0.49053 0.283209,10.83784 0,11.32838 z" />
      <path
         d="m 45.645271,245.6753 c -0.43701,0.75693 -6.695213,4.3701 -7.569233,4.3701 -0.874019,0 -7.132223,-3.61317 -7.569232,-4.3701 -0.43701,-0.75692 -0.43701,-7.98327 0,-8.74019 0.437009,-0.75693 6.695213,-4.3701 7.569232,-4.3701 0.87402,0 7.132223,3.61317 7.569233,4.3701 0.43701,0.75692 0.43701,7.98327 0,8.74019 z"
         inkscape:randomized="0"
         inkscape:rounded="0.1"
         inkscape:flatsided="true"
         sodipodi:arg2="1.0471976"
         sodipodi:arg1="0.52359878"
         sodipodi:r2="7.569231"
         sodipodi:r1="8.7401972"
         sodipodi:cy="241.30521"
         sodipodi:cx="38.076038"
         sodipodi:sides="6"
         id="path4592"
         style="opacity:1;fill:#ffd42a;fill-opacity:1;fill-rule:evenodd;stroke:#000000;stroke-width:0.52904135;stroke-linecap:round;stroke-linejoin:round;stroke-miterlimit:4;stroke-dasharray:none;stroke-dashoffset:2.64983559;stroke-opacity:1;paint-order:normal"
         sodipodi:type="star" />
      <path
         style="opacity:1;fill:#ffaa00;fill-opacity:1;fill-rule:evenodd;stroke:#000000;stroke-width:0.52904135;stroke-linecap:round;stroke-linejoin:round;stroke-miterlimit:4;stroke-dasharray:none;stroke-dashoffset:2.64983559;stroke-opacity:1;paint-order:normal"
         d="m 58.65133,229.9767 c -0.56642,0 -9.527564,5.17372 -9.810771,5.66425 -0.28321,0.49053 -0.28321,10.83797 0,11.32851 0.283207,0.49053 9.244351,5.66425 9.810771,5.66425 0.389633,0 4.063904,-2.40648 6.840926,-4.09432 2.378117,-2.91087 -16.651697,-1.56993 -6.840926,-7.23419 -9.810771,-5.66425 9.234069,-3.82283 6.840926,-7.23418 -2.777022,-1.68785 -6.451293,-4.09432 -6.840926,-4.09432 z"
         id="path4736"
         inkscape:connector-curvature="0"
         sodipodi:nodetypes="sccscccs" />
      <path
         sodipodi:nodetypes="csccscc"
         inkscape:connector-curvature="0"
         id="path4602"
         d="m 65.382426,245.76884 c -0.43701,0.75693 -5.432364,4.27656 -6.306384,4.27656 -0.87402,0 -7.132223,-3.61317 -7.569233,-4.3701 -0.437009,-0.75692 -0.437009,-7.98327 0,-8.74019 0.43701,-0.75693 6.695213,-4.3701 7.569233,-4.3701 0.87402,0 5.869374,3.70671 6.306384,4.46364 0.43701,0.75692 0.43701,7.98327 0,8.74019 z"
         style="opacity:1;fill:#ffd42a;fill-opacity:1;fill-rule:evenodd;stroke:#000000;stroke-width:0.52904135;stroke-linecap:round;stroke-linejoin:round;stroke-miterlimit:4;stroke-dasharray:none;stroke-dashoffset:2.64983559;stroke-opacity:1;paint-order:normal" />
      <path
         d="m 37.303371,265.09333 c -0.28321,0.49053 -9.244246,5.66419 -9.810665,5.66419 -0.566419,0 -9.527455,-5.17366 -9.810664,-5.66419 -0.28321,-0.49054 -0.28321,-10.83785 0,-11.32838 0.283209,-0.49053 9.244245,-5.66419 9.810664,-5.66419 0.566419,0 9.527455,5.17366 9.810665,5.66419 0.283209,0.49053 0.283209,10.83784 0,11.32838 z"
         inkscape:randomized="0"
         inkscape:rounded="0.05"
         inkscape:flatsided="true"
         sodipodi:arg2="1.0471976"
         sodipodi:arg1="0.52359878"
         sodipodi:r2="9.8106642"
         sodipodi:r1="11.32838"
         sodipodi:cy="259.42914"
         sodipodi:cx="27.492706"
         sodipodi:sides="6"
         id="path4606"
         style="opacity:1;fill:#ffaa00;fill-opacity:1;fill-rule:evenodd;stroke:#000000;stroke-width:0.52904135;stroke-linecap:round;stroke-linejoin:round;stroke-miterlimit:4;stroke-dasharray:none;stroke-dashoffset:2.64983559;stroke-opacity:1;paint-order:normal"
         sodipodi:type="star" />
      <path
         sodipodi:type="star"
         style="opacity:1;fill:#ffd42a;fill-opacity:1;fill-rule:evenodd;stroke:#000000;stroke-width:0.52904135;stroke-linecap:round;stroke-linejoin:round;stroke-miterlimit:4;stroke-dasharray:none;stroke-dashoffset:2.64983559;stroke-opacity:1;paint-order:normal"
         id="path4608"
         sodipodi:sides="6"
         sodipodi:cx="27.492706"
         sodipodi:cy="259.42914"
         sodipodi:r1="8.7401972"
         sodipodi:r2="7.569231"
         sodipodi:arg1="0.52359878"
         sodipodi:arg2="1.0471976"
         inkscape:flatsided="true"
         inkscape:rounded="0.1"
         inkscape:randomized="0"
         d="m 35.061939,263.79924 c -0.43701,0.75692 -6.695213,4.3701 -7.569233,4.3701 -0.874019,0 -7.132223,-3.61318 -7.569233,-4.3701 -0.437009,-0.75693 -0.437009,-7.98328 10e-7,-8.7402 0.437009,-0.75692 6.695213,-4.3701 7.569232,-4.3701 0.87402,0 7.132223,3.61318 7.569233,4.3701 0.43701,0.75692 0.43701,7.98327 0,8.7402 z" />
      <path
         sodipodi:nodetypes="sccscccs"
         transform="matrix(0.26458333,0,0,0.26458333,0,191.16665)"
         inkscape:connector-curvature="0"
         id="path4614"
         d="m 183.2793,215.18359 c -2.1408,0 -36.00969,19.55424 -37.08008,21.40821 -1.0704,1.85397 -1.0704,40.96239 0,42.8164 1.07039,1.85397 34.93928,21.40821 37.08008,21.40821 1.47263,0 16.10964,-9.09535 26.60547,-15.47461 8.98816,-11.00171 -63.68555,-5.9336 -26.60547,-27.3418 -37.08008,-21.4082 35.65042,-14.44852 26.60547,-27.3418 -10.49583,-6.37926 -25.13284,-15.47461 -26.60547,-15.47461 z"
         style="opacity:1;fill:#ffaa00;fill-opacity:1;fill-rule:evenodd;stroke:#000000;stroke-width:1.99952638;stroke-linecap:round;stroke-linejoin:round;stroke-miterlimit:4;stroke-dasharray:none;stroke-dashoffset:2.64983559;stroke-opacity:1;paint-order:normal" />
      <path
         sodipodi:type="star"
         style="opacity:1;fill:#ffaa00;fill-opacity:1;fill-rule:evenodd;stroke:#000000;stroke-width:0.52904135;stroke-linecap:round;stroke-linejoin:round;stroke-miterlimit:4;stroke-dasharray:none;stroke-dashoffset:2.64983559;stroke-opacity:1;paint-order:normal"
         id="path4622"
         sodipodi:sides="6"
         sodipodi:cx="27.492706"
         sodipodi:cy="223.18124"
         sodipodi:r1="11.32838"
         sodipodi:r2="9.8106642"
         sodipodi:arg1="0.52359878"
         sodipodi:arg2="1.0471976"
         inkscape:flatsided="true"
         inkscape:rounded="0.05"
         inkscape:randomized="0"
         d="m 37.303371,228.84543 c -0.28321,0.49054 -9.244246,5.66419 -9.810665,5.66419 -0.566419,0 -9.527455,-5.17365 -9.810664,-5.66419 -0.28321,-0.49053 -0.28321,-10.83784 0,-11.32838 0.283209,-0.49053 9.244245,-5.66419 9.810664,-5.66419 0.566419,0 9.527455,5.17366 9.810665,5.66419 0.283209,0.49054 0.283209,10.83785 0,11.32838 z" />
      <path
         d="m 35.061939,227.55134 c -0.43701,0.75693 -6.695213,4.3701 -7.569233,4.3701 -0.874019,0 -7.132223,-3.61317 -7.569233,-4.3701 -0.437009,-0.75692 -0.437009,-7.98327 10e-7,-8.74019 0.437009,-0.75693 6.695213,-4.3701 7.569232,-4.3701 0.87402,0 7.132223,3.61317 7.569233,4.3701 0.43701,0.75692 0.43701,7.98327 0,8.74019 z"
         inkscape:randomized="0"
         inkscape:rounded="0.1"
         inkscape:flatsided="true"
         sodipodi:arg2="1.0471976"
         sodipodi:arg1="0.52359878"
         sodipodi:r2="7.569231"
         sodipodi:r1="8.7401972"
         sodipodi:cy="223.18124"
         sodipodi:cx="27.492706"
         sodipodi:sides="6"
         id="path4624"
         style="opacity:1;fill:#ffd42a;fill-opacity:1;fill-rule:evenodd;stroke:#000000;stroke-width:0.52904135;stroke-linecap:round;stroke-linejoin:round;stroke-miterlimit:4;stroke-dasharray:none;stroke-dashoffset:2.64983559;stroke-opacity:1;paint-order:normal"
         sodipodi:type="star" />
      <path
         d="m 58.303371,228.84543 c -0.28321,0.49054 -9.244246,5.66419 -9.810665,5.66419 -0.566419,0 -9.527455,-5.17365 -9.810664,-5.66419 -0.28321,-0.49053 -0.28321,-10.83784 0,-11.32838 0.283209,-0.49053 9.244245,-5.66419 9.810664,-5.66419 0.566419,0 9.527455,5.17366 9.810665,5.66419 0.283209,0.49054 0.283209,10.83785 0,11.32838 z"
         inkscape:randomized="0"
         inkscape:rounded="0.05"
         inkscape:flatsided="true"
         sodipodi:arg2="1.0471976"
         sodipodi:arg1="0.52359878"
         sodipodi:r2="9.8106642"
         sodipodi:r1="11.32838"
         sodipodi:cy="223.18124"
         sodipodi:cx="48.492706"
         sodipodi:sides="6"
         id="path4630"
         style="opacity:1;fill:#ffaa00;fill-opacity:1;fill-rule:evenodd;stroke:#000000;stroke-width:0.52904135;stroke-linecap:round;stroke-linejoin:round;stroke-miterlimit:4;stroke-dasharray:none;stroke-dashoffset:2.64983559;stroke-opacity:1;paint-order:normal"
         sodipodi:type="star" />
      <path
         sodipodi:type="star"
         style="opacity:1;fill:#ffd42a;fill-opacity:1;fill-rule:evenodd;stroke:#000000;stroke-width:0.52904135;stroke-linecap:round;stroke-linejoin:round;stroke-miterlimit:4;stroke-dasharray:none;stroke-dashoffset:2.64983559;stroke-opacity:1;paint-order:normal"
         id="path4632"
         sodipodi:sides="6"
         sodipodi:cx="48.492706"
         sodipodi:cy="223.18124"
         sodipodi:r1="8.7401972"
         sodipodi:r2="7.569231"
         sodipodi:arg1="0.52359878"
         sodipodi:arg2="1.0471976"
         inkscape:flatsided="true"
         inkscape:rounded="0.1"
         inkscape:randomized="0"
         d="m 56.061939,227.55134 c -0.43701,0.75693 -6.695213,4.3701 -7.569233,4.3701 -0.874019,0 -7.132223,-3.61317 -7.569233,-4.3701 -0.437009,-0.75692 -0.437009,-7.98327 10e-7,-8.74019 0.437009,-0.75693 6.695213,-4.3701 7.569232,-4.3701 0.87402,0 7.132223,3.61317 7.569233,4.3701 0.43701,0.75692 0.43701,7.98327 0,8.74019 z" />
      <flowRoot
         transform="matrix(0.34694102,0,0,0.34694102,-17.435294,181.71843)"
         style="font-style:normal;font-variant:normal;font-weight:bold;font-stretch:normal;font-size:42.66666794px;line-height:0;font-family:Arial;-inkscape-font-specification:'Arial Bold';letter-spacing:0px;word-spacing:0px;baseline-shift:baseline;fill:#000000;fill-opacity:1;stroke:none"
         id="flowRoot4658"
         xml:space="preserve"><flowRegion
           style="font-style:normal;font-variant:normal;font-weight:bold;font-stretch:normal;font-size:42.66666794px;font-family:Arial;-inkscape-font-specification:'Arial Bold'"
           id="flowRegion4660"><rect
             style="font-style:normal;font-variant:normal;font-weight:bold;font-stretch:normal;font-size:42.66666794px;font-family:Arial;-inkscape-font-specification:'Arial Bold'"
             y="175"
             x="204.5"
             height="28.859959"
             width="71.114738"
             id="rect4662" /></flowRegion><flowPara
           id="flowPara4664" /></flowRoot>      <flowRoot
         xml:space="preserve"
         id="flowRoot4705"
         style="font-style:normal;font-variant:normal;font-weight:bold;font-stretch:normal;font-size:42.66666794px;line-height:0;font-family:Arial;-inkscape-font-specification:'Arial Bold';letter-spacing:0px;word-spacing:0px;baseline-shift:baseline;fill:#000000;fill-opacity:1;stroke:none"
         transform="matrix(0.32600323,0,0,0.32600323,-24.036222,203.43841)"><flowRegion
           id="flowRegion4701"
           style="font-style:normal;font-variant:normal;font-weight:bold;font-stretch:normal;font-size:42.66666794px;font-family:Arial;-inkscape-font-specification:'Arial Bold'"><rect
             id="rect4699"
             width="47.387653"
             height="31.016964"
             x="204.5"
             y="175"
             style="font-style:normal;font-variant:normal;font-weight:bold;font-stretch:normal;font-size:42.66666794px;font-family:Arial;-inkscape-font-specification:'Arial Bold'" /></flowRegion><flowPara
           id="flowPara4707" /></flowRoot>      <text
         xml:space="preserve"
         style="font-style:normal;font-variant:normal;font-weight:normal;font-stretch:normal;font-size:11.28888893px;line-height:0;font-family:'MV Boli';-inkscape-font-specification:'MV Boli';letter-spacing:0.0238125px;word-spacing:-3.96875px;fill:#000000;fill-opacity:1;stroke:none;stroke-width:0.26458332"
         x="52.721741"
         y="245.30331"
         id="text4723"><tspan
           sodipodi:role="line"
           id="tspan4721"
           x="52.721741"
           y="245.30331"
           style="font-style:normal;font-variant:normal;font-weight:normal;font-stretch:normal;font-size:12.69999981px;font-family:'MV Boli';-inkscape-font-specification:'MV Boli';letter-spacing:0.03704167px;word-spacing:-2.64583325px;stroke-width:0.26458332">H oney</tspan></text>
      <path
         style="opacity:1;fill:#ffd42a;fill-opacity:1;fill-rule:evenodd;stroke:#000000;stroke-width:0.52904135;stroke-linecap:round;stroke-linejoin:round;stroke-miterlimit:4;stroke-dasharray:none;stroke-dashoffset:2.64983559;stroke-opacity:1;paint-order:normal"
         d="m 54.962792,263.89278 c -0.43701,0.75693 -5.432364,4.27656 -6.306384,4.27656 -0.87402,0 -7.132223,-3.61317 -7.569233,-4.3701 -0.437009,-0.75692 -0.437009,-7.98327 0,-8.74019 0.43701,-0.75693 6.695213,-4.3701 7.569233,-4.3701 0.87402,0 5.869374,3.70671 6.306384,4.46364 0.43701,0.75692 0.43701,7.98327 0,8.74019 z"
         id="path4747"
         inkscape:connector-curvature="0"
         sodipodi:nodetypes="csccscc" />
      <text
         id="text4751"
         y="263.95645"
         x="41.486187"
         style="font-style:normal;font-variant:normal;font-weight:normal;font-stretch:normal;font-size:11.28888893px;line-height:0;font-family:'MV Boli';-inkscape-font-specification:'MV Boli';letter-spacing:0.0238125px;word-spacing:-3.96875px;fill:#000000;fill-opacity:1;stroke:none;stroke-width:0.26458332"
         xml:space="preserve"><tspan
           style="font-style:normal;font-variant:normal;font-weight:normal;font-stretch:normal;font-size:12.69999981px;font-family:'MV Boli';-inkscape-font-specification:'MV Boli';letter-spacing:0.03704167px;word-spacing:-3.96875px;stroke-width:0.26458332"
           y="263.95645"
           x="41.486187"
           id="tspan4749"
           sodipodi:role="line">M oney</tspan></text>
      <path
         sodipodi:type="star"
         style="opacity:1;fill:#ffd42a;fill-opacity:1;fill-rule:evenodd;stroke:#000000;stroke-width:0.52904135;stroke-linecap:round;stroke-linejoin:round;stroke-miterlimit:4;stroke-dasharray:none;stroke-dashoffset:2.64983559;stroke-opacity:1;paint-order:normal"
         id="path4755"
         sodipodi:sides="6"
         sodipodi:cx="38.076038"
         sodipodi:cy="241.30521"
         sodipodi:r1="8.7401972"
         sodipodi:r2="7.569231"
         sodipodi:arg1="0.52359878"
         sodipodi:arg2="1.0471976"
         inkscape:flatsided="true"
         inkscape:rounded="0.1"
         inkscape:randomized="0"
         d="m 45.645271,245.6753 c -0.43701,0.75693 -6.695213,4.3701 -7.569233,4.3701 -0.874019,0 -7.132223,-3.61317 -7.569232,-4.3701 -0.43701,-0.75692 -0.43701,-7.98327 0,-8.74019 0.437009,-0.75693 6.695213,-4.3701 7.569232,-4.3701 0.87402,0 7.132223,3.61317 7.569233,4.3701 0.43701,0.75692 0.43701,7.98327 0,8.74019 z" />
    </g>
  </g>
</svg>
